<?xml version="1.0" standalone="no"?>
<!DOCTYPE svg PUBLIC "-//W3C//DTD SVG 20010904//EN"
 "http://www.w3.org/TR/2001/REC-SVG-20010904/DTD/svg10.dtd">
<svg version="1.0" xmlns="http://www.w3.org/2000/svg"
 width="900.000000pt" height="900.000000pt" viewBox="0 0 900.000000 900.000000"
 preserveAspectRatio="xMidYMid meet">
<metadata>
Created by potrace 1.11, written by Peter Selinger 2001-2013
</metadata>
<g transform="translate(0.000000,900.000000) scale(0.100000,-0.100000)"
fill="#000000" stroke="none">
<path d="M3997 8977 l-27 -23 0 -747 0 -747 -25 -16 c-23 -15 -28 -15 -73 1
-32 12 -91 20 -187 24 -123 6 -145 9 -180 30 -75 45 -85 59 -85 116 0 38 -6
60 -21 79 -19 24 -27 27 -77 24 -55 -3 -55 -3 -82 -53 -26 -48 -27 -55 -24
-164 l4 -115 40 -41 c22 -22 40 -48 40 -56 0 -20 -82 -59 -125 -59 -19 0 -52
-9 -72 -20 -21 -11 -57 -20 -81 -20 -23 0 -53 -6 -65 -14 -12 -8 -38 -17 -57
-21 -19 -4 -44 -14 -55 -21 -11 -8 -32 -14 -47 -14 -15 0 -42 -9 -60 -20 -18
-11 -44 -20 -58 -20 -14 -1 -36 -7 -50 -15 -14 -8 -34 -14 -45 -15 -12 0 -50
-16 -85 -35 -36 -19 -76 -35 -90 -35 -14 0 -38 -7 -55 -16 -30 -16 -117 -60
-250 -125 -75 -37 -151 -76 -175 -90 -8 -5 -26 -14 -40 -19 -14 -6 -32 -14
-40 -20 -8 -5 -32 -17 -52 -26 -20 -8 -39 -22 -42 -30 -3 -7 -43 -32 -88 -53
-46 -22 -94 -51 -107 -65 -14 -14 -31 -26 -38 -26 -8 0 -35 -20 -61 -44 -26
-24 -65 -53 -87 -64 -22 -11 -56 -37 -75 -57 -19 -20 -51 -45 -70 -55 -43 -23
-610 -591 -610 -611 0 -8 -18 -33 -41 -54 -22 -22 -51 -60 -64 -85 -13 -25
-37 -58 -55 -75 -18 -16 -48 -61 -67 -100 -19 -38 -43 -79 -53 -90 -27 -29
-220 -416 -220 -441 0 -11 -11 -41 -25 -65 -35 -62 -45 -87 -45 -112 0 -12
-11 -39 -25 -59 l-25 -37 0 -894 0 -894 25 -23 c17 -16 25 -34 25 -57 0 -18 9
-50 20 -70 11 -21 20 -44 20 -51 0 -7 16 -46 35 -86 19 -41 35 -82 35 -91 0
-23 88 -203 104 -212 8 -5 23 -27 35 -50 11 -23 25 -44 31 -48 5 -3 10 -15 10
-25 0 -11 13 -34 30 -53 16 -18 45 -65 64 -103 20 -38 51 -83 69 -101 19 -18
41 -47 50 -65 9 -18 41 -58 71 -88 31 -30 62 -71 70 -90 18 -44 414 -440 440
-440 10 0 50 -31 89 -70 39 -38 77 -70 84 -70 8 0 35 -20 61 -44 26 -24 65
-53 88 -64 22 -11 46 -28 54 -37 8 -9 30 -25 50 -35 20 -10 43 -26 50 -35 8
-9 34 -27 59 -40 25 -12 55 -32 65 -44 11 -12 23 -21 27 -21 5 0 35 -13 66
-28 112 -56 449 -224 516 -258 37 -19 77 -34 88 -34 11 0 37 -9 59 -20 22 -11
47 -20 57 -20 11 0 49 -16 86 -35 37 -19 78 -35 92 -35 13 0 39 -9 57 -20 19
-11 51 -20 75 -20 23 0 54 -7 70 -14 44 -23 123 -47 178 -55 28 -4 61 -13 74
-20 13 -7 46 -13 74 -13 30 1 70 -7 96 -19 24 -10 66 -19 93 -19 29 0 71 -9
101 -23 l52 -22 915 0 915 0 35 22 c27 18 50 23 100 23 45 0 73 5 90 17 15 11
47 18 87 19 38 1 73 8 88 18 13 9 43 16 65 16 22 0 58 9 80 20 22 11 52 20 67
20 15 0 37 7 47 15 11 8 41 15 67 15 31 0 55 6 72 20 14 11 37 20 51 20 14 0
56 16 93 35 37 19 79 35 93 35 14 0 39 9 55 20 17 11 41 20 54 20 13 0 128 52
255 117 394 199 393 198 413 182 17 -15 63 -102 63 -122 0 -7 22 -35 49 -61
28 -27 56 -63 62 -80 15 -35 31 -51 74 -71 17 -7 46 -30 65 -50 39 -41 144
-97 165 -89 8 3 30 -3 48 -15 31 -19 50 -21 180 -21 129 0 151 3 186 21 25 12
48 18 61 14 26 -8 125 36 165 74 17 16 41 32 55 36 14 4 45 26 70 50 25 23 55
48 67 54 13 6 30 25 38 42 9 17 40 53 70 81 44 41 66 75 114 172 39 82 60 138
64 174 4 29 13 62 22 74 22 32 23 494 0 524 -8 10 -15 33 -15 49 0 17 -9 41
-20 55 -11 14 -20 39 -20 55 0 37 -38 114 -79 161 -17 19 -31 40 -31 46 0 6
-22 35 -50 64 -27 29 -50 60 -50 68 0 8 14 31 31 51 17 19 46 65 64 103 18 37
42 76 54 86 11 11 21 24 21 29 0 6 21 46 46 89 25 44 43 86 40 94 -3 8 10 47
29 86 19 38 35 78 35 87 0 9 9 33 20 54 11 20 20 50 20 66 0 17 11 42 25 59
l25 30 0 897 0 897 -25 30 c-14 16 -25 42 -25 58 0 16 -16 59 -35 96 -19 37
-35 74 -35 82 0 33 -182 396 -219 437 -10 11 -33 51 -51 88 -19 38 -49 83 -68
100 -18 18 -44 52 -57 77 -13 25 -40 61 -60 80 -20 19 -42 49 -49 65 -17 39
-572 594 -611 611 -16 7 -48 31 -70 54 -22 23 -56 48 -76 56 -20 8 -55 35 -77
60 -23 24 -48 44 -56 44 -9 0 -30 13 -48 28 -18 16 -60 41 -93 57 -33 16 -76
41 -95 56 -64 48 -630 329 -663 329 -13 0 -30 7 -37 15 -7 8 -19 15 -26 15 -8
0 -31 9 -51 20 -21 11 -47 20 -58 20 -11 1 -31 7 -45 15 -14 8 -36 14 -50 15
-14 0 -38 9 -55 20 -16 11 -44 20 -61 20 -17 0 -38 7 -45 16 -11 14 -10 21 4
46 13 23 17 54 17 138 0 105 -1 109 -26 129 -18 15 -41 21 -73 21 -54 0 -71
-13 -71 -51 0 -41 -45 -89 -83 -89 -18 0 -45 -9 -62 -20 -27 -18 -47 -20 -182
-20 -125 0 -154 3 -167 16 -22 21 -20 63 4 99 14 22 20 47 20 91 0 37 6 68 15
80 8 11 14 41 15 71 0 34 7 64 20 85 11 19 20 51 20 74 0 22 7 49 15 60 9 12
14 43 15 84 0 47 6 74 20 98 11 18 20 50 20 73 0 22 9 59 19 83 11 23 19 56
19 72 -1 16 6 44 16 61 9 19 16 56 16 88 0 36 7 70 20 94 11 22 19 55 18 75
-1 20 9 54 23 80 l24 45 -21 28 c-24 32 -187 121 -224 122 -14 1 -35 8 -48 16
-12 9 -37 17 -56 19 -20 1 -44 10 -54 19 -12 11 -36 17 -68 17 -27 1 -60 7
-74 15 -14 8 -52 14 -86 15 -42 0 -65 5 -74 15 -11 13 -85 15 -559 15 l-546
-1 -28 -22z m4548 -7225 c11 -18 35 -51 53 -73 19 -25 32 -52 32 -69 0 -16 7
-36 16 -44 8 -9 18 -33 21 -53 3 -21 12 -50 19 -65 8 -15 14 -52 14 -83 0 -36
7 -70 20 -95 25 -49 25 -67 0 -105 -16 -24 -20 -47 -20 -116 0 -65 -4 -90 -15
-99 -8 -7 -15 -18 -15 -24 0 -13 -87 -186 -101 -201 -5 -5 -9 -16 -9 -25 0 -9
-51 -67 -114 -129 -94 -94 -128 -121 -199 -157 -48 -24 -98 -44 -113 -44 -14
0 -38 -9 -52 -21 -25 -19 -35 -21 -122 -15 -64 5 -109 14 -140 28 -25 11 -61
28 -80 37 -41 18 -230 198 -230 219 0 7 -16 41 -35 73 -19 33 -35 68 -35 78 0
22 83 101 105 101 9 0 40 23 68 51 29 28 69 57 89 66 21 8 60 40 88 69 27 30
64 61 82 69 39 16 418 393 435 433 6 15 36 52 66 83 30 31 63 71 72 90 10 19
22 40 28 47 17 21 50 9 72 -26z"/>
</g>
</svg>
